<svg width="180" height="44" viewBox="0 0 180 44" fill="none" xmlns="http://www.w3.org/2000/svg">
  <rect x="0.5" y="0.5" width="43" height="43" rx="12" fill="url(#paint0_linear)"/>
  <path d="M13 22C13 17.029 17.029 13 22 13H22.5C27.471 13 31.5 17.029 31.5 22C31.5 26.971 27.471 31 22.5 31H22C17.029 31 13 26.971 13 22Z" fill="white" opacity="0.9"/>
  <path d="M22 17.5C19.239 17.5 17 19.739 17 22.5C17 25.261 19.239 27.5 22 27.5C24.761 27.5 27 25.261 27 22.5C27 19.739 24.761 17.5 22 17.5ZM22 25.5C20.343 25.5 19 24.157 19 22.5C19 20.843 20.343 19.5 22 19.5C23.657 19.5 25 20.843 25 22.5C25 24.157 23.657 25.5 22 25.5Z" fill="#3B2170"/>
  <path d="M155.248 23.508V19.756H152.304V17.236H155.248V14H158.248V17.236H161.212V19.756H158.248V23.508C158.248 24.356 158.692 24.772 159.5 24.772C160.132 24.772 160.792 24.58 161.212 24.268V26.96C160.636 27.212 159.544 27.452 158.344 27.452C156.052 27.452 155.248 26.012 155.248 23.508Z" fill="#20113A"/>
  <path d="M48.36 32H43.704V12H54.144C59.304 12 62.856 15.54 62.856 20.616C62.856 25.692 59.304 29.208 54.144 29.208H48.36V32ZM48.36 16.296V24.912H53.832C56.472 24.912 58.44 23.04 58.44 20.616C58.44 18.192 56.472 16.296 53.832 16.296H48.36Z" fill="#20113A"/>
  <path d="M71.604 27.3H77.172C81.288 27.3 82.908 24.828 82.908 21.54C82.908 18.252 81.288 15.78 77.172 15.78H71.604V27.3ZM75.996 12.048C83.7 12.048 86.664 16.86 86.664 21.54C86.664 26.22 83.7 31.032 75.996 31.032H67.2V12.048H75.996Z" fill="#20113A"/>
  <path d="M95.772 27.3H100.32C104.616 27.3 106.392 24.756 106.392 21.54C106.392 18.324 104.616 15.78 100.32 15.78H95.772V27.3ZM95.772 12.048H100.968C108.864 12.048 110.148 17.484 110.148 21.54C110.148 25.596 108.864 31.032 100.968 31.032H91.728V12.048H95.772Z" fill="#20113A"/>
  <path d="M124.308 31.032H121.152L112.944 12.048H117.444L122.796 25.32L128.148 12.048H132.612L124.308 31.032Z" fill="#20113A"/>
  <path d="M139.824 31.032H135.768V12.048H139.824V31.032Z" fill="#20113A"/>
  <path d="M142.092 22.428C142.092 16.764 146.46 12 152.088 12C157.716 12 162.12 16.764 162.12 22.428C162.12 28.092 157.716 32.856 152.088 32.856C146.46 32.856 142.092 28.092 142.092 22.428ZM157.98 22.428C157.98 18.432 155.028 15.372 152.088 15.372C149.148 15.372 146.172 18.432 146.172 22.428C146.172 26.424 149.148 29.484 152.088 29.484C155.028 29.484 157.98 26.424 157.98 22.428Z" fill="#20113A"/>
  <defs>
    <linearGradient id="paint0_linear" x1="0" y1="0" x2="44" y2="44" gradientUnits="userSpaceOnUse">
      <stop stop-color="#6C5CE7"/>
      <stop offset="1" stop-color="#FD79A8"/>
    </linearGradient>
  </defs>
</svg>

